<?xml version="1.0" encoding="iso-8859-1"?>
<!-- Uploaded to: SVG Repo, www.svgrepo.com, Generator: SVG Repo Mixer Tools -->
<!DOCTYPE svg PUBLIC "-//W3C//DTD SVG 1.1//EN" "http://www.w3.org/Graphics/SVG/1.1/DTD/svg11.dtd">
<svg fill="#000000" height="800px" width="800px" version="1.1" id="Capa_1" xmlns="http://www.w3.org/2000/svg" xmlns:xlink="http://www.w3.org/1999/xlink" 
	 viewBox="0 0 58.852 58.852" xml:space="preserve">
<path d="M57.52,1.332C56.661,0.473,55.516,0,54.295,0c-1.222,0-2.367,0.473-3.226,1.332l-5.513,8.236L43,6.935
	c-1.131-1.131-3.119-1.126-4.238-0.005L6.756,38.523c-1.168,1.17-1.168,3.073,0.025,4.267l2.885,2.698l-8.182,5.457l-0.152,0.125
	C0.473,51.928,0,53.073,0,54.295c0,1.221,0.473,2.366,1.332,3.225c0.858,0.859,2.004,1.332,3.226,1.332
	c1.221,0,2.366-0.473,3.225-1.332l5.778-8.391l2.196,2.054c0.565,0.565,1.318,0.877,2.122,0.877s1.557-0.312,2.126-0.882
	l31.168-31.583c1.168-1.171,1.168-3.073,0.01-4.231l-1.87-1.926l8.067-5.537l0.141-0.117c0.859-0.858,1.332-2.004,1.332-3.225
	C58.852,3.336,58.379,2.19,57.52,1.332z M6.307,56.164c-0.967,0.908-2.619,0.883-3.561-0.059C2.265,55.624,2,54.981,2,54.295
	c0-0.656,0.241-1.272,0.683-1.746l8.294-5.53l0.954,0.953L6.307,56.164z M11.757,39.352l5-5c0.391-0.391,1.023-0.391,1.414,0
	s0.391,1.023,0,1.414l-5,5c-0.195,0.195-0.451,0.293-0.707,0.293s-0.512-0.098-0.707-0.293
	C11.367,40.375,11.367,39.743,11.757,39.352z M15.464,44.059c-0.256,0-0.512-0.098-0.707-0.293c-0.391-0.391-0.391-1.023,0-1.414
	l8-8c0.391-0.391,1.023-0.391,1.414,0s0.391,1.023,0,1.414l-8,8C15.976,43.961,15.72,44.059,15.464,44.059z M30.171,35.766l-11,11
	c-0.195,0.195-0.451,0.293-0.707,0.293s-0.512-0.098-0.707-0.293c-0.391-0.391-0.391-1.023,0-1.414l11-11
	c0.391-0.391,1.023-0.391,1.414,0S30.562,35.375,30.171,35.766z M56.164,6.307l-8.192,5.624l-0.953-0.954l5.53-8.294
	c0.969-0.903,2.615-0.878,3.557,0.063c0.481,0.481,0.746,1.124,0.746,1.812C56.852,5.216,56.608,5.834,56.164,6.307z"/>
</svg>